<svg width="60" height="14" viewBox="0 0 60 14" fill="none" xmlns="http://www.w3.org/2000/svg">
<path d="M15.6464 4.4668C15.1718 3.47143 14.2723 2.82846 12.9168 2.82846C12.5008 2.83572 12.0919 2.93845 11.7218 3.12871C11.3517 3.31897 11.0304 3.59169 10.7823 3.92584L10.7329 3.98612V0.0850089C10.7329 0.0624632 10.7239 0.0408422 10.7079 0.0249C10.692 0.00895792 10.6704 0 10.6479 0H8.73134C8.70901 0.000405098 8.6878 0.00953934 8.67219 0.0254378C8.65658 0.0413362 8.64783 0.0627285 8.64783 0.0850089V11.2752C8.64783 11.2973 8.65665 11.3185 8.67226 11.3342C8.68794 11.3499 8.70915 11.3586 8.73134 11.3586H10.7839C10.8061 11.3586 10.8276 11.3499 10.8435 11.3343C10.8593 11.3187 10.8684 11.2975 10.8689 11.2752V6.50391C10.8689 5.57655 11.4871 4.91966 12.4763 4.91966C13.5582 4.91966 13.8318 5.80993 13.8318 6.7172V11.2752C13.8318 11.2973 13.8406 11.3185 13.8563 11.3342C13.8719 11.3499 13.8931 11.3586 13.9153 11.3586H15.9632C15.9855 11.3586 16.0069 11.3499 16.0228 11.3343C16.0387 11.3187 16.0478 11.2975 16.0482 11.2752V6.44517C16.0482 6.2798 16.0482 6.11751 16.0265 5.95986C15.9914 5.44323 15.8625 4.93732 15.6464 4.4668Z" fill="#5A31F4"/>
<path d="M5.39854 6.12553C5.39854 6.12553 4.35371 5.87978 3.96884 5.78086C3.58399 5.68195 2.91165 5.47174 2.91165 4.96323C2.91165 4.45473 3.45416 4.29244 4.0044 4.29244C4.55463 4.29244 5.16669 4.42537 5.21461 5.03588C5.21654 5.05788 5.22667 5.07836 5.24299 5.09324C5.25931 5.10812 5.28062 5.11634 5.30271 5.11625L7.32591 5.10853C7.33781 5.10855 7.34959 5.10613 7.36052 5.10139C7.37145 5.09667 7.38128 5.08973 7.3894 5.08102C7.39752 5.07232 7.40377 5.06204 7.40773 5.05081C7.4117 5.03958 7.41331 5.02766 7.41246 5.01578C7.28727 3.06214 5.57319 2.36353 3.99203 2.36353C2.11721 2.36353 0.746259 3.60001 0.746259 4.96323C0.746259 5.95861 1.02756 6.89215 3.23932 7.54134C3.62727 7.65411 4.15432 7.80097 4.61491 7.92928C5.16823 8.08384 5.46654 8.31722 5.46654 8.68507C5.46654 9.11165 4.8483 9.40838 4.24087 9.40838C3.36143 9.40838 2.737 9.08225 2.68599 8.49649C2.68334 8.47507 2.6729 8.45533 2.65666 8.44105C2.64042 8.42684 2.6195 8.41907 2.59789 8.41921L0.579333 8.42845C0.567499 8.42845 0.555786 8.43083 0.544891 8.43545C0.533995 8.44007 0.524143 8.44686 0.51592 8.4554C0.507698 8.46387 0.501273 8.47395 0.497032 8.48501C0.492791 8.49607 0.490819 8.50783 0.491235 8.51966C0.583971 10.3636 2.36451 11.3574 4.02449 11.3574C6.49746 11.3574 7.61496 9.96636 7.61496 8.66344C7.61804 8.05136 7.47737 6.65722 5.39854 6.12553Z" fill="#5A31F4"/>
<path d="M31.4257 2.82548C30.3978 2.82548 29.5369 3.39426 28.9821 4.08051V2.90585C28.9821 2.88398 28.9735 2.86298 28.9582 2.84738C28.9429 2.83177 28.922 2.82279 28.9002 2.82239H26.9805C26.9584 2.82239 26.9371 2.83118 26.9215 2.84683C26.9059 2.86249 26.897 2.88371 26.897 2.90585V13.8797C26.8975 13.9015 26.9064 13.9224 26.922 13.9377C26.9376 13.953 26.9586 13.9616 26.9805 13.9616H29.0346C29.0563 13.9616 29.0772 13.9529 29.0925 13.9375C29.1079 13.9222 29.1165 13.9014 29.1165 13.8797V10.2722H29.1475C29.4736 10.7699 30.3654 11.3665 31.5308 11.3665C33.7224 11.3665 35.5493 9.54889 35.5493 7.09293C35.5509 4.73585 33.7333 2.82548 31.4257 2.82548ZM31.2356 9.27533C30.8029 9.28604 30.3768 9.16766 30.0118 8.93519C29.6467 8.70272 29.3592 8.36672 29.1859 7.97017C29.0126 7.57355 28.9614 7.1343 29.0388 6.70852C29.1163 6.28271 29.3189 5.88962 29.6207 5.57944C29.9225 5.26926 30.31 5.05606 30.7335 4.96702C31.157 4.87799 31.5975 4.91718 31.9986 5.07959C32.3998 5.24199 32.7435 5.52025 32.9859 5.87884C33.2282 6.23744 33.3582 6.6601 33.3592 7.09293C33.3637 7.3758 33.3123 7.65685 33.2079 7.91977C33.1035 8.18276 32.9481 8.42251 32.7508 8.6253C32.5535 8.82809 32.3181 8.98993 32.058 9.10145C31.798 9.21303 31.5185 9.27211 31.2356 9.27533Z" fill="#5A31F4"/>
<path d="M20.8192 2.34302C18.9042 2.34302 17.949 2.99372 17.1824 3.51458L17.1592 3.53004C17.1197 3.55711 17.0918 3.59809 17.0813 3.6448C17.0706 3.69151 17.0781 3.7405 17.1021 3.78198L17.8594 5.08646C17.8736 5.11087 17.893 5.13185 17.9162 5.14788C17.9395 5.16391 17.966 5.17461 17.9939 5.1792C18.0211 5.18412 18.0491 5.18292 18.0758 5.17571C18.1026 5.16849 18.1274 5.15544 18.1484 5.13747L18.2087 5.08801C18.6028 4.75725 19.235 4.31521 20.7651 4.19465C21.6167 4.12664 22.3524 4.34921 22.8949 4.85617C23.4915 5.40641 23.8486 6.29513 23.8486 7.23333C23.8486 8.95975 22.8316 10.0448 21.1979 10.0664C19.8517 10.0587 18.9475 9.357 18.9475 8.31988C18.9475 7.76961 19.1963 7.41106 19.6816 7.05245C19.7187 7.02599 19.7449 6.98695 19.7554 6.94263C19.7659 6.89831 19.76 6.85168 19.7388 6.81136L19.0588 5.52541C19.0462 5.50241 19.0292 5.48209 19.0088 5.46565C18.9884 5.4492 18.9649 5.43695 18.9398 5.42959C18.914 5.42193 18.887 5.41976 18.8603 5.42321C18.8337 5.42668 18.8081 5.43569 18.7852 5.44968C18.0217 5.90255 17.0851 6.73099 17.136 8.32296C17.1979 10.3493 18.8826 11.8964 21.0727 11.9597H21.1824H21.3324C23.9351 11.8748 25.8146 9.94276 25.8146 7.32293C25.8146 4.91799 24.0619 2.34302 20.8192 2.34302Z" fill="#5A31F4"/>
<path d="M43.6454 3.57965H42.3408C42.3102 3.58005 42.281 3.59239 42.2594 3.61404C42.2377 3.6357 42.2253 3.66495 42.2249 3.69557V6.43284C42.2253 6.46331 42.2377 6.4924 42.2594 6.51381C42.2811 6.53521 42.3104 6.54722 42.3408 6.54722H43.6454C44.4398 6.54722 45.0256 5.92124 45.0256 5.06343C45.0256 4.20562 44.4398 3.57965 43.6454 3.57965Z" fill="#5A31F4"/>
<path d="M47.6523 8.4218C47.6523 8.81898 47.9877 9.04004 48.572 9.04004C49.3664 9.04004 49.8363 8.61038 49.8363 7.84836V7.62891L48.6462 7.69072C48.0187 7.72166 47.6523 7.98283 47.6523 8.4218Z" fill="#5A31F4"/>
<path d="M57.3124 0.0246108H39.7852C39.4977 0.0246108 39.213 0.0812719 38.9474 0.191355C38.6817 0.301438 38.4404 0.462786 38.2371 0.666178C38.0339 0.869571 37.8727 1.11102 37.7628 1.37673C37.6529 1.64244 37.5964 1.9272 37.5966 2.21474V11.8099C37.5966 12.3905 37.8272 12.9472 38.2376 13.3579C38.648 13.7686 39.2046 13.9996 39.7852 14H57.3124C57.6003 14.0008 57.8855 13.9448 58.1517 13.8353C58.4179 13.7259 58.66 13.5649 58.864 13.3618C59.0679 13.1586 59.2299 12.9173 59.3405 12.6516C59.4511 12.3858 59.5083 12.1008 59.5087 11.813V2.21782C59.5093 1.92937 59.4529 1.64365 59.3427 1.37708C59.2325 1.11051 59.0707 0.868346 58.8666 0.664527C58.6625 0.460706 58.4201 0.299243 58.1534 0.189424C57.8867 0.0796031 57.6009 0.0235916 57.3124 0.0246108ZM43.7111 7.62436H42.3324C42.3016 7.62436 42.2722 7.63654 42.2504 7.65831C42.2287 7.68001 42.2164 7.70955 42.2164 7.74028V9.70323C42.2164 9.73396 42.2043 9.76343 42.1825 9.7852C42.1608 9.8069 42.1313 9.81915 42.1005 9.81915H41.1299C41.0993 9.81873 41.0701 9.80634 41.0484 9.78471C41.0267 9.76308 41.0144 9.73382 41.014 9.70323V2.62277C41.014 2.59203 41.0262 2.56255 41.0479 2.5408C41.0697 2.51907 41.0992 2.50685 41.1299 2.50685H43.7111C45.1732 2.50685 46.2196 3.57177 46.2196 5.06638C46.2196 6.56098 45.181 7.62744 43.7188 7.62744L43.7111 7.62436ZM50.9754 9.70162C50.9756 9.71702 50.9728 9.73221 50.967 9.74649C50.9613 9.7607 50.9528 9.77372 50.942 9.78464C50.9313 9.79556 50.9184 9.80424 50.9042 9.81012C50.89 9.81607 50.8748 9.81915 50.8595 9.81915H49.9429C49.9276 9.81915 49.9124 9.81607 49.8983 9.81012C49.8841 9.80424 49.8712 9.79556 49.8605 9.78464C49.8497 9.77372 49.8411 9.7607 49.8354 9.74649C49.8297 9.73221 49.8268 9.71702 49.827 9.70162V9.48987C49.8285 9.47132 49.8241 9.45277 49.8142 9.43695C49.8043 9.42113 49.7896 9.40895 49.7722 9.40216C49.7548 9.39537 49.7358 9.39439 49.7178 9.39936C49.6998 9.40426 49.6839 9.4149 49.6725 9.4296C49.3989 9.72794 48.9538 9.94431 48.2443 9.94431C47.1995 9.94431 46.5086 9.40027 46.5086 8.46052C46.4986 8.23141 46.5459 8.00335 46.6463 7.79712C46.7467 7.5909 46.897 7.41303 47.0836 7.27968C47.4607 6.99684 48.0449 6.85001 48.912 6.816L49.8317 6.78509V6.51616C49.8317 5.97365 49.4669 5.74335 48.8811 5.74335C48.2953 5.74335 47.9259 5.95046 47.8394 6.28895C47.8325 6.31286 47.8178 6.33377 47.7976 6.34835C47.7775 6.36291 47.753 6.3703 47.7281 6.36932H46.8209C46.8041 6.36974 46.7875 6.36649 46.7723 6.35981C46.7569 6.35313 46.7433 6.34318 46.7322 6.33066C46.7212 6.31813 46.7131 6.30335 46.7083 6.28733C46.7036 6.27132 46.7024 6.25446 46.7049 6.23795C46.8409 5.43423 47.5055 4.82372 48.9229 4.82372C50.4283 4.82372 50.9708 5.52388 50.9708 6.86083L50.9754 9.70162ZM56.6849 5.10811L54.6447 10.5502C54.181 11.8145 53.3696 12.1391 52.4809 12.1391C52.3134 12.1432 52.1463 12.1229 51.9847 12.0788C51.9595 12.072 51.9372 12.0571 51.9213 12.0365C51.9054 12.0158 51.8967 11.9905 51.8966 11.9644V11.1375C51.8966 11.1202 51.9003 11.1031 51.9076 11.0874C51.9149 11.0717 51.9256 11.0579 51.9388 11.0468C51.9521 11.0358 51.9678 11.0278 51.9845 11.0234C52.0012 11.019 52.0187 11.0184 52.0357 11.0216C52.1758 11.0482 52.3181 11.0617 52.4608 11.0618C52.7065 11.0741 52.9494 11.0036 53.1503 10.8615C53.3512 10.7194 53.4987 10.514 53.5689 10.2781L53.6292 10.088C53.6386 10.0626 53.6386 10.0347 53.6292 10.0092L51.722 5.10966C51.7161 5.09214 51.7145 5.07349 51.7172 5.05522C51.72 5.03696 51.727 5.0196 51.7376 5.00454C51.7483 4.98949 51.7624 4.97717 51.7788 4.96857C51.7951 4.95998 51.8132 4.95536 51.8317 4.9551H52.759C52.7828 4.95532 52.8059 4.96266 52.8255 4.97615C52.8451 4.98965 52.8601 5.00869 52.8688 5.03083L54.164 8.48684C54.1725 8.50938 54.1878 8.52884 54.2077 8.54256C54.2276 8.55628 54.2512 8.56363 54.2753 8.56363C54.2995 8.56363 54.323 8.55628 54.3429 8.54256C54.3628 8.52884 54.378 8.50938 54.3865 8.48684L55.5103 5.0401C55.5178 5.0166 55.5327 4.99613 55.5527 4.98168C55.5727 4.96721 55.5968 4.95953 55.6215 4.95973H56.5721C56.5904 4.95967 56.6086 4.96392 56.625 4.97213C56.6414 4.98035 56.6557 4.99229 56.6667 5.00702C56.6776 5.02176 56.685 5.03885 56.6881 5.05695C56.6913 5.07503 56.6902 5.09362 56.6849 5.1112V5.10811Z" fill="#5A31F4"/>
</svg>
